HIERARCHY
ROOT Hips
{
	OFFSET 0.000000 0.000000 0.000000
	CHANNELS 6 Xposition Yposition Zposition Xrotation Yrotation Zrotation
	JOINT LeftUpLeg_virtual
	{
		OFFSET 0.000000 0.000000 0.000000
		CHANNELS 3 Xrotation Yrotation Zrotation
		JOINT LeftUpLeg
		{
			OFFSET 10.205400 -3.823500 0.155100
			CHANNELS 3 Xrotation Yrotation Zrotation
			JOINT LeftLeg
			{
				OFFSET 0.708757 -12.982077 0.567790
				CHANNELS 3 Xrotation Yrotation Zrotation
				JOINT LeftFoot
				{
					OFFSET -0.708756 -10.717838 -2.184338
					CHANNELS 3 Xrotation Yrotation Zrotation
					JOINT LeftToeBase
					{
						OFFSET 0.108149 -7.191104 7.560241
						CHANNELS 3 Xrotation Yrotation Zrotation
						JOINT LeftToe_End
						{
							OFFSET 0.070230 0.081724 4.490308
							CHANNELS 3 Xrotation Yrotation Zrotation
							End Site
							{
								OFFSET 0 0 0
							}
						}
					}
				}
			}
		}
	}
	JOINT RightUpLeg_virtual
	{
		OFFSET 0.000000 0.000000 0.000000
		CHANNELS 3 Xrotation Yrotation Zrotation
		JOINT RightUpLeg
		{
			OFFSET -10.205400 -3.823500 0.005500
			CHANNELS 3 Xrotation Yrotation Zrotation
			JOINT RightLeg
			{
				OFFSET -0.708756 -12.982134 0.610632
				CHANNELS 3 Xrotation Yrotation Zrotation
				JOINT RightFoot
				{
					OFFSET 0.708754 -10.717769 -1.945823
					CHANNELS 3 Xrotation Yrotation Zrotation
					JOINT RightToeBase
					{
						OFFSET -0.108140 -7.191069 7.372968
						CHANNELS 3 Xrotation Yrotation Zrotation
						JOINT RightToe_End
						{
							OFFSET -0.070227 0.081735 4.479403
							CHANNELS 3 Xrotation Yrotation Zrotation
							End Site
							{
								OFFSET 0 0 0
							}
						}
					}
				}
			}
		}
	}
	JOINT Spine_virtual
	{
		OFFSET 0.000000 0.000000 0.000000
		CHANNELS 3 Xrotation Yrotation Zrotation
		JOINT Spine
		{
			OFFSET 0.000000 6.876099 0.125700
			CHANNELS 3 Xrotation Yrotation Zrotation
			JOINT Spine1
			{
				OFFSET 0.000000 5.730043 0.104720
				CHANNELS 3 Xrotation Yrotation Zrotation
				JOINT Spine1_split
				{
					OFFSET 0.000000 5.730043 0.104720
					CHANNELS 3 Xrotation Yrotation Zrotation
					JOINT Spine2
					{
						OFFSET 0.000000 5.730043 0.104720
						CHANNELS 3 Xrotation Yrotation Zrotation
						JOINT Neck_virtual
						{
							OFFSET 0.000000 0.000000 0.000000
							CHANNELS 3 Xrotation Yrotation Zrotation
							JOINT Neck
							{
								OFFSET 0.000000 10.314075 0.188496
								CHANNELS 3 Xrotation Yrotation Zrotation
								JOINT Head
								{
									OFFSET 0.000000 7.643700 -2.377400
									CHANNELS 3 Xrotation Yrotation Zrotation
									JOINT HeadTop_End
									{
										OFFSET 0.000000 43.788605 -13.619600
										CHANNELS 3 Xrotation Yrotation Zrotation
										End Site
										{
											OFFSET 0 0 0
										}
									}
								}
							}
						}
						JOINT LeftShoulder_virtual
						{
							OFFSET 0.000000 0.000000 0.000000
							CHANNELS 3 Xrotation Yrotation Zrotation
							JOINT LeftShoulder
							{
								OFFSET 2.196100 4.412489 0.087492
								CHANNELS 3 Xrotation Yrotation Zrotation
								JOINT LeftShoulder_split
								{
									OFFSET 2.196100 4.412489 0.087492
									CHANNELS 3 Xrotation Yrotation Zrotation
									JOINT LeftArm
									{
										OFFSET 8.771219 -2.981674 -0.026999
										CHANNELS 3 Xrotation Yrotation Zrotation
										JOINT LeftForeArm
										{
											OFFSET 8.512804 0.000000 -0.000000
											CHANNELS 3 Xrotation Yrotation Zrotation
											JOINT LeftHand
											{
												OFFSET 18.484802 0.000000 -0.000000
												CHANNELS 3 Xrotation Yrotation Zrotation
												End Site
												{
													OFFSET 0 0 0
												}
											}
										}
									}
								}
							}
						}
						JOINT RightShoulder_virtual
						{
							OFFSET 0.000000 0.000000 0.000000
							CHANNELS 3 Xrotation Yrotation Zrotation
							JOINT RightShoulder
							{
								OFFSET -2.196100 4.412496 0.070690
								CHANNELS 3 Xrotation Yrotation Zrotation
								JOINT RightShoulder_split
								{
									OFFSET -2.196100 4.412496 0.070690
									CHANNELS 3 Xrotation Yrotation Zrotation
									JOINT RightArm
									{
										OFFSET -8.771282 -2.981682 -0.094208
										CHANNELS 3 Xrotation Yrotation Zrotation
										JOINT RightForeArm
										{
											OFFSET -8.494598 0.000000 0.000000
											CHANNELS 3 Xrotation Yrotation Zrotation
											JOINT RightHand
											{
												OFFSET -18.483803 0.000000 0.000001
												CHANNELS 3 Xrotation Yrotation Zrotation
												End Site
												{
													OFFSET 0 0 0
												}
											}
										}
									}
								}
							}
						}
					}
				}
			}
		}
	}
}
MOTION
Frames: 5
Frame Time: 0.03333333
1.208518 30.212082 0.392584 0.000000 0.000000 0.000000 8.258296 -67.464886 10.100262 -34.501331 10.511334 25.237020 37.882306 -9.059776 -0.271151 -10.743095 -0.882687 -18.905202 1.340378 0.260143 1.245015 0.000000 0.000000 0.000000 5.902507 -66.344551 8.518641 -19.461881 -12.303944 -33.852924 25.539534 -1.310471 -1.844412 -10.435616 -5.998219 26.866433 -2.505648 -0.482211 -1.327475 0.000000 0.000000 0.000000 2.473006 -64.218832 5.605200 16.647374 0.408755 -4.038696 4.578864 0.842804 -2.639184 0.415683 2.467669 0.461157 0.000000 0.000000 0.000000 4.122019 0.585960 -2.619858 -4.811368 2.905713 2.965143 -15.415353 52.331058 -3.551527 0.000000 0.000000 0.000000 4.692503 0.207929 -2.727186 2.635028 -3.192109 -11.093843 -3.140888 -5.855650 1.504018 -38.187489 28.458297 -33.186694 3.187349 -42.993056 4.480678 0.000000 0.000000 0.000000 5.286798 0.684164 -2.366811 1.742218 5.791236 9.497536 4.303896 4.794394 0.494039 4.502909 -9.675814 55.278596 -20.527502 35.170358 13.508355 0.000000 0.000000 0.000000 
1.007337 30.393063 1.134140 0.000000 0.000000 0.000000 7.649971 -67.810111 9.446170 -34.577816 11.388361 25.335229 38.410853 -8.917554 -0.029846 -10.604640 -0.500961 -19.334230 0.933830 0.161643 1.646198 0.000000 0.000000 0.000000 7.111619 -67.315025 9.174305 -18.939227 -11.752653 -33.524894 26.333933 -1.564726 -1.768350 -9.164001 -6.169702 26.257474 -2.690400 -0.865609 -0.669851 0.000000 0.000000 0.000000 3.615900 -64.700476 6.182844 16.473800 0.248796 -3.959182 4.519928 0.701861 -2.571387 0.272560 2.504494 0.427537 0.000000 0.000000 0.000000 3.823011 0.502682 -2.582017 -5.045662 3.059137 2.514485 -14.566922 52.282260 -4.172399 0.000000 0.000000 0.000000 4.590753 0.062152 -2.692551 2.670411 -3.670552 -10.799483 -3.385217 -5.787385 1.709298 -39.087779 28.623875 -32.573292 3.105032 -43.967926 4.605851 0.000000 0.000000 0.000000 5.229550 0.645030 -2.327399 1.733809 6.331029 9.843540 3.736524 4.050494 0.133550 3.338225 -9.797618 54.705079 -20.028799 33.745861 12.992761 0.000000 0.000000 0.000000 
0.776615 30.565388 2.105213 0.000000 0.000000 0.000000 7.364993 -68.437826 8.992661 -34.216803 12.502656 25.182156 39.283331 -8.506409 0.025270 -11.571074 0.296534 -18.509601 0.162899 0.074772 2.080805 0.000000 0.000000 0.000000 8.503768 -68.364948 9.954179 -18.739124 -10.178939 -33.018613 28.377706 -1.816153 -1.415069 -8.361628 -7.000326 25.383893 -3.530219 -1.203625 0.135408 0.000000 0.000000 0.000000 5.143959 -65.251871 7.031310 16.168379 0.066675 -3.792955 4.248871 0.325124 -2.417161 0.260355 2.461413 0.316481 0.000000 0.000000 0.000000 3.335394 0.131143 -2.401379 -5.093462 3.674572 1.963563 -13.646353 52.339425 -4.922245 0.000000 0.000000 0.000000 4.266245 -0.346543 -2.534877 2.694566 -4.162793 -10.652519 -3.531917 -5.347485 1.791872 -40.519308 28.502489 -31.585015 4.396631 -43.804950 5.707440 0.000000 0.000000 0.000000 4.894964 0.322808 -2.173305 1.809224 6.951588 10.210294 3.207320 3.412194 -0.089612 1.183829 -9.803650 53.800509 -18.956905 30.761864 11.871773 0.000000 0.000000 0.000000 
0.534569 30.616859 3.144810 0.000000 0.000000 0.000000 7.552166 -69.129806 8.887568 -33.829411 13.580030 24.853259 40.738598 -7.964437 -0.053898 -13.631061 1.261863 -16.537440 -0.462938 0.015602 2.333172 0.000000 0.000000 0.000000 10.134789 -69.197862 10.966231 -19.213739 -7.881729 -32.260838 30.723888 -1.855387 -0.858197 -8.578136 -8.145753 24.425052 -4.280794 -1.360896 0.747662 0.000000 0.000000 0.000000 6.718668 -65.660931 7.940687 15.822362 -0.154512 -3.566654 3.829492 -0.242296 -2.193619 0.332334 2.261238 0.270114 0.000000 0.000000 0.000000 2.772635 -0.469742 -2.114002 -4.938050 4.639245 1.385487 -12.903724 52.381738 -5.558650 0.000000 0.000000 0.000000 3.787806 -0.955375 -2.280819 2.712614 -4.630648 -10.667837 -3.712314 -4.665323 1.837326 -42.071496 27.974358 -30.573723 6.672071 -42.473589 7.479638 0.000000 0.000000 0.000000 4.378435 -0.247251 -1.946206 1.978599 7.498609 10.575998 2.870250 3.046144 -0.199396 -1.388958 -9.425043 52.973622 -17.698984 27.403527 10.587545 0.000000 0.000000 0.000000 
0.325327 30.493546 4.044480 0.000000 0.000000 0.000000 8.430858 -69.574397 9.362088 -34.050894 14.370125 24.496552 42.958447 -7.558163 -0.151351 -16.442719 2.035291 -14.003111 -0.674930 -0.006933 2.333621 0.000000 0.000000 0.000000 11.887907 -69.480345 12.097994 -20.623579 -5.385057 -31.194075 33.109205 -1.657680 -0.168414 -10.209444 -9.275612 23.406169 -4.002341 -1.219535 0.934390 0.000000 0.000000 0.000000 8.498208 -65.912924 9.009163 15.466902 -0.411831 -3.290880 3.358926 -0.914225 -1.944142 0.403607 1.770862 0.307434 0.000000 0.000000 0.000000 2.247289 -1.195784 -1.791375 -4.691056 5.808013 0.797899 -12.709280 52.189441 -5.772114 0.000000 0.000000 0.000000 3.269356 -1.655586 -1.990792 2.721940 -5.039077 -10.715329 -3.890266 -4.017990 1.794416 -43.476616 26.803517 -29.771360 9.361720 -40.449999 9.516199 0.000000 0.000000 0.000000 3.796053 -0.971847 -1.701316 2.220402 7.825549 10.902604 2.641510 2.878143 -0.281446 -3.715614 -8.638670 52.544218 -16.488191 24.709843 9.398868 0.000000 0.000000 0.000000 
